<mxfile host="app.diagrams.net" agent="Mozilla/5.0 (Windows NT 10.0; Win64; x64) AppleWebKit/537.36 (KHTML, like Gecko) Chrome/136.0.0.0 Safari/537.36" version="27.0.6">
  <diagram name="Page-1" id="f2c3ZBrtwbG61Y7bOaYs">
    <mxGraphModel dx="1245" dy="697" grid="1" gridSize="10" guides="1" tooltips="1" connect="1" arrows="1" fold="1" page="1" pageScale="1" pageWidth="850" pageHeight="1100" math="0" shadow="0">
      <root>
        <mxCell id="0" />
        <mxCell id="1" parent="0" />
        <mxCell id="Z1lMZc72gcsaE7SiT7uQ-36" style="edgeStyle=orthogonalEdgeStyle;rounded=0;orthogonalLoop=1;jettySize=auto;html=1;exitX=0.75;exitY=1;exitDx=0;exitDy=0;entryX=0.75;entryY=0;entryDx=0;entryDy=0;" edge="1" parent="1" source="Z1lMZc72gcsaE7SiT7uQ-1" target="Z1lMZc72gcsaE7SiT7uQ-5">
          <mxGeometry relative="1" as="geometry" />
        </mxCell>
        <mxCell id="Z1lMZc72gcsaE7SiT7uQ-1" value="P1" style="swimlane;whiteSpace=wrap;html=1;" vertex="1" parent="1">
          <mxGeometry x="530" y="20" width="180" height="160" as="geometry" />
        </mxCell>
        <mxCell id="Z1lMZc72gcsaE7SiT7uQ-2" value="UPRAVLJANJE KORISNICIMA&lt;div&gt;&lt;br&gt;&lt;div&gt;Registracija, evidentiranje kupaca i uređivanje podataka&lt;/div&gt;&lt;/div&gt;" style="text;html=1;align=center;verticalAlign=middle;whiteSpace=wrap;rounded=0;" vertex="1" parent="Z1lMZc72gcsaE7SiT7uQ-1">
          <mxGeometry x="60" y="85" width="60" height="30" as="geometry" />
        </mxCell>
        <mxCell id="Z1lMZc72gcsaE7SiT7uQ-23" style="edgeStyle=orthogonalEdgeStyle;rounded=0;orthogonalLoop=1;jettySize=auto;html=1;exitX=0;exitY=0.5;exitDx=0;exitDy=0;entryX=1;entryY=0.75;entryDx=0;entryDy=0;" edge="1" parent="1" source="Z1lMZc72gcsaE7SiT7uQ-5" target="Z1lMZc72gcsaE7SiT7uQ-14">
          <mxGeometry relative="1" as="geometry" />
        </mxCell>
        <mxCell id="Z1lMZc72gcsaE7SiT7uQ-24" value="Zahtjev za isporuku" style="edgeLabel;html=1;align=center;verticalAlign=middle;resizable=0;points=[];" vertex="1" connectable="0" parent="Z1lMZc72gcsaE7SiT7uQ-23">
          <mxGeometry x="-0.5277" y="-2" relative="1" as="geometry">
            <mxPoint as="offset" />
          </mxGeometry>
        </mxCell>
        <mxCell id="Z1lMZc72gcsaE7SiT7uQ-37" style="edgeStyle=orthogonalEdgeStyle;rounded=0;orthogonalLoop=1;jettySize=auto;html=1;exitX=0.25;exitY=1;exitDx=0;exitDy=0;entryX=0.25;entryY=0;entryDx=0;entryDy=0;" edge="1" parent="1" source="Z1lMZc72gcsaE7SiT7uQ-5" target="Z1lMZc72gcsaE7SiT7uQ-9">
          <mxGeometry relative="1" as="geometry" />
        </mxCell>
        <mxCell id="Z1lMZc72gcsaE7SiT7uQ-5" value="P2" style="swimlane;whiteSpace=wrap;html=1;" vertex="1" parent="1">
          <mxGeometry x="530" y="210" width="180" height="160" as="geometry" />
        </mxCell>
        <mxCell id="Z1lMZc72gcsaE7SiT7uQ-6" value="&lt;div&gt;&lt;span style=&quot;background-color: transparent; color: light-dark(rgb(0, 0, 0), rgb(255, 255, 255));&quot;&gt;EVIDENCIJA ZALIHA&lt;/span&gt;&lt;/div&gt;&lt;div&gt;&lt;br&gt;&lt;div&gt;Prikaz zaliha&lt;/div&gt;&lt;/div&gt;" style="text;html=1;align=center;verticalAlign=middle;whiteSpace=wrap;rounded=0;" vertex="1" parent="Z1lMZc72gcsaE7SiT7uQ-5">
          <mxGeometry x="60" y="85" width="60" height="30" as="geometry" />
        </mxCell>
        <mxCell id="Z1lMZc72gcsaE7SiT7uQ-34" style="edgeStyle=orthogonalEdgeStyle;rounded=0;orthogonalLoop=1;jettySize=auto;html=1;exitX=0;exitY=0.75;exitDx=0;exitDy=0;entryX=1;entryY=0.75;entryDx=0;entryDy=0;" edge="1" parent="1" source="Z1lMZc72gcsaE7SiT7uQ-7" target="Z1lMZc72gcsaE7SiT7uQ-16">
          <mxGeometry relative="1" as="geometry" />
        </mxCell>
        <mxCell id="Z1lMZc72gcsaE7SiT7uQ-35" value="Obavijesti o promjenama" style="edgeLabel;html=1;align=center;verticalAlign=middle;resizable=0;points=[];" vertex="1" connectable="0" parent="Z1lMZc72gcsaE7SiT7uQ-34">
          <mxGeometry x="-0.5247" y="-2" relative="1" as="geometry">
            <mxPoint as="offset" />
          </mxGeometry>
        </mxCell>
        <mxCell id="Z1lMZc72gcsaE7SiT7uQ-7" value="P4" style="swimlane;whiteSpace=wrap;html=1;" vertex="1" parent="1">
          <mxGeometry x="530" y="580" width="180" height="160" as="geometry" />
        </mxCell>
        <mxCell id="Z1lMZc72gcsaE7SiT7uQ-8" value="ADMINISTRACIJA SUSTAVA&lt;div&gt;&lt;br&gt;&lt;/div&gt;&lt;div&gt;Upravljanje ulogama&lt;/div&gt;" style="text;html=1;align=center;verticalAlign=middle;whiteSpace=wrap;rounded=0;" vertex="1" parent="Z1lMZc72gcsaE7SiT7uQ-7">
          <mxGeometry x="60" y="85" width="60" height="30" as="geometry" />
        </mxCell>
        <mxCell id="Z1lMZc72gcsaE7SiT7uQ-30" style="edgeStyle=orthogonalEdgeStyle;rounded=0;orthogonalLoop=1;jettySize=auto;html=1;exitX=0;exitY=0.25;exitDx=0;exitDy=0;entryX=0.25;entryY=1;entryDx=0;entryDy=0;" edge="1" parent="1" source="Z1lMZc72gcsaE7SiT7uQ-9" target="Z1lMZc72gcsaE7SiT7uQ-13">
          <mxGeometry relative="1" as="geometry" />
        </mxCell>
        <mxCell id="Z1lMZc72gcsaE7SiT7uQ-31" value="Novi zahtjevi kupaca za obradu" style="edgeLabel;html=1;align=center;verticalAlign=middle;resizable=0;points=[];" vertex="1" connectable="0" parent="Z1lMZc72gcsaE7SiT7uQ-30">
          <mxGeometry x="-0.3772" y="-3" relative="1" as="geometry">
            <mxPoint as="offset" />
          </mxGeometry>
        </mxCell>
        <mxCell id="Z1lMZc72gcsaE7SiT7uQ-38" style="edgeStyle=orthogonalEdgeStyle;rounded=0;orthogonalLoop=1;jettySize=auto;html=1;exitX=0.75;exitY=1;exitDx=0;exitDy=0;entryX=0.75;entryY=0;entryDx=0;entryDy=0;" edge="1" parent="1" source="Z1lMZc72gcsaE7SiT7uQ-9" target="Z1lMZc72gcsaE7SiT7uQ-7">
          <mxGeometry relative="1" as="geometry" />
        </mxCell>
        <mxCell id="Z1lMZc72gcsaE7SiT7uQ-9" value="P3" style="swimlane;whiteSpace=wrap;html=1;startSize=23;" vertex="1" parent="1">
          <mxGeometry x="530" y="390" width="180" height="160" as="geometry" />
        </mxCell>
        <mxCell id="Z1lMZc72gcsaE7SiT7uQ-10" value="OBRADA ZAHTJEVA KUPACA&lt;div&gt;&lt;br&gt;&lt;/div&gt;&lt;div&gt;Primanje i obrada zahtjeva za kupovinu voća&lt;br&gt;&lt;div&gt;&lt;br&gt;&lt;/div&gt;&lt;/div&gt;" style="text;html=1;align=center;verticalAlign=middle;whiteSpace=wrap;rounded=0;" vertex="1" parent="Z1lMZc72gcsaE7SiT7uQ-9">
          <mxGeometry x="40" y="90" width="100" height="30" as="geometry" />
        </mxCell>
        <mxCell id="Z1lMZc72gcsaE7SiT7uQ-17" style="edgeStyle=orthogonalEdgeStyle;rounded=0;orthogonalLoop=1;jettySize=auto;html=1;exitX=1;exitY=0.5;exitDx=0;exitDy=0;entryX=0;entryY=0.5;entryDx=0;entryDy=0;" edge="1" parent="1" source="Z1lMZc72gcsaE7SiT7uQ-13" target="Z1lMZc72gcsaE7SiT7uQ-1">
          <mxGeometry relative="1" as="geometry" />
        </mxCell>
        <mxCell id="Z1lMZc72gcsaE7SiT7uQ-18" value="Pregled korisnika" style="edgeLabel;html=1;align=center;verticalAlign=middle;resizable=0;points=[];" vertex="1" connectable="0" parent="Z1lMZc72gcsaE7SiT7uQ-17">
          <mxGeometry x="-0.49" y="1" relative="1" as="geometry">
            <mxPoint as="offset" />
          </mxGeometry>
        </mxCell>
        <mxCell id="Z1lMZc72gcsaE7SiT7uQ-19" style="edgeStyle=orthogonalEdgeStyle;rounded=0;orthogonalLoop=1;jettySize=auto;html=1;exitX=1;exitY=0.75;exitDx=0;exitDy=0;entryX=0;entryY=0.25;entryDx=0;entryDy=0;" edge="1" parent="1" source="Z1lMZc72gcsaE7SiT7uQ-13" target="Z1lMZc72gcsaE7SiT7uQ-5">
          <mxGeometry relative="1" as="geometry" />
        </mxCell>
        <mxCell id="Z1lMZc72gcsaE7SiT7uQ-20" value="Prikaz zaliha" style="edgeLabel;html=1;align=center;verticalAlign=middle;resizable=0;points=[];" vertex="1" connectable="0" parent="Z1lMZc72gcsaE7SiT7uQ-19">
          <mxGeometry x="-0.6187" y="-1" relative="1" as="geometry">
            <mxPoint as="offset" />
          </mxGeometry>
        </mxCell>
        <mxCell id="Z1lMZc72gcsaE7SiT7uQ-13" value="DJELATNICI" style="rounded=0;whiteSpace=wrap;html=1;" vertex="1" parent="1">
          <mxGeometry x="10" y="70" width="120" height="60" as="geometry" />
        </mxCell>
        <mxCell id="Z1lMZc72gcsaE7SiT7uQ-21" style="edgeStyle=orthogonalEdgeStyle;rounded=0;orthogonalLoop=1;jettySize=auto;html=1;exitX=1;exitY=0.25;exitDx=0;exitDy=0;" edge="1" parent="1" source="Z1lMZc72gcsaE7SiT7uQ-14">
          <mxGeometry relative="1" as="geometry">
            <mxPoint x="530" y="275" as="targetPoint" />
          </mxGeometry>
        </mxCell>
        <mxCell id="Z1lMZc72gcsaE7SiT7uQ-22" value="Isporuka" style="edgeLabel;html=1;align=center;verticalAlign=middle;resizable=0;points=[];" vertex="1" connectable="0" parent="Z1lMZc72gcsaE7SiT7uQ-21">
          <mxGeometry x="-0.4757" relative="1" as="geometry">
            <mxPoint as="offset" />
          </mxGeometry>
        </mxCell>
        <mxCell id="Z1lMZc72gcsaE7SiT7uQ-14" value="DOBAVLJAČI" style="rounded=0;whiteSpace=wrap;html=1;" vertex="1" parent="1">
          <mxGeometry x="10" y="260" width="120" height="60" as="geometry" />
        </mxCell>
        <mxCell id="Z1lMZc72gcsaE7SiT7uQ-25" style="edgeStyle=orthogonalEdgeStyle;rounded=0;orthogonalLoop=1;jettySize=auto;html=1;exitX=1;exitY=0.5;exitDx=0;exitDy=0;entryX=0;entryY=0.5;entryDx=0;entryDy=0;" edge="1" parent="1" source="Z1lMZc72gcsaE7SiT7uQ-15" target="Z1lMZc72gcsaE7SiT7uQ-9">
          <mxGeometry relative="1" as="geometry" />
        </mxCell>
        <mxCell id="Z1lMZc72gcsaE7SiT7uQ-26" value="Zahtjevi za narudžbu" style="edgeLabel;html=1;align=center;verticalAlign=middle;resizable=0;points=[];" vertex="1" connectable="0" parent="Z1lMZc72gcsaE7SiT7uQ-25">
          <mxGeometry x="-0.505" y="2" relative="1" as="geometry">
            <mxPoint as="offset" />
          </mxGeometry>
        </mxCell>
        <mxCell id="Z1lMZc72gcsaE7SiT7uQ-15" value="KUPCI" style="rounded=0;whiteSpace=wrap;html=1;" vertex="1" parent="1">
          <mxGeometry x="10" y="440" width="120" height="60" as="geometry" />
        </mxCell>
        <mxCell id="Z1lMZc72gcsaE7SiT7uQ-32" style="edgeStyle=orthogonalEdgeStyle;rounded=0;orthogonalLoop=1;jettySize=auto;html=1;exitX=1;exitY=0.25;exitDx=0;exitDy=0;" edge="1" parent="1" source="Z1lMZc72gcsaE7SiT7uQ-16">
          <mxGeometry relative="1" as="geometry">
            <mxPoint x="530" y="645" as="targetPoint" />
          </mxGeometry>
        </mxCell>
        <mxCell id="Z1lMZc72gcsaE7SiT7uQ-33" value="Upravljanje sustavom" style="edgeLabel;html=1;align=center;verticalAlign=middle;resizable=0;points=[];" vertex="1" connectable="0" parent="Z1lMZc72gcsaE7SiT7uQ-32">
          <mxGeometry x="-0.4956" relative="1" as="geometry">
            <mxPoint as="offset" />
          </mxGeometry>
        </mxCell>
        <mxCell id="Z1lMZc72gcsaE7SiT7uQ-16" value="VODITELJ SUSTAVA" style="rounded=0;whiteSpace=wrap;html=1;" vertex="1" parent="1">
          <mxGeometry x="10" y="630" width="120" height="60" as="geometry" />
        </mxCell>
        <mxCell id="Z1lMZc72gcsaE7SiT7uQ-39" value="BAZA PODATAKA" style="shape=cylinder3;whiteSpace=wrap;html=1;boundedLbl=1;backgroundOutline=1;size=15;" vertex="1" parent="1">
          <mxGeometry x="760" y="640" width="80" height="100" as="geometry" />
        </mxCell>
        <mxCell id="Z1lMZc72gcsaE7SiT7uQ-40" style="edgeStyle=orthogonalEdgeStyle;rounded=0;orthogonalLoop=1;jettySize=auto;html=1;exitX=1;exitY=0.5;exitDx=0;exitDy=0;entryX=0.855;entryY=0;entryDx=0;entryDy=4.35;entryPerimeter=0;" edge="1" parent="1" source="Z1lMZc72gcsaE7SiT7uQ-5" target="Z1lMZc72gcsaE7SiT7uQ-39">
          <mxGeometry relative="1" as="geometry" />
        </mxCell>
        <mxCell id="Z1lMZc72gcsaE7SiT7uQ-41" value="Pohrana i dohvat&amp;nbsp;&lt;div&gt;podataka&lt;/div&gt;" style="edgeLabel;html=1;align=center;verticalAlign=middle;resizable=0;points=[];" vertex="1" connectable="0" parent="Z1lMZc72gcsaE7SiT7uQ-40">
          <mxGeometry x="-0.7462" relative="1" as="geometry">
            <mxPoint x="10" y="-10" as="offset" />
          </mxGeometry>
        </mxCell>
        <mxCell id="Z1lMZc72gcsaE7SiT7uQ-42" style="edgeStyle=orthogonalEdgeStyle;rounded=0;orthogonalLoop=1;jettySize=auto;html=1;exitX=1;exitY=0.5;exitDx=0;exitDy=0;entryX=0.606;entryY=-0.045;entryDx=0;entryDy=0;entryPerimeter=0;" edge="1" parent="1" source="Z1lMZc72gcsaE7SiT7uQ-9" target="Z1lMZc72gcsaE7SiT7uQ-39">
          <mxGeometry relative="1" as="geometry" />
        </mxCell>
        <mxCell id="Z1lMZc72gcsaE7SiT7uQ-43" value="Dohvat podataka&lt;div&gt;o zalihama&lt;/div&gt;" style="edgeLabel;html=1;align=center;verticalAlign=middle;resizable=0;points=[];" vertex="1" connectable="0" parent="Z1lMZc72gcsaE7SiT7uQ-42">
          <mxGeometry x="-0.6136" relative="1" as="geometry">
            <mxPoint as="offset" />
          </mxGeometry>
        </mxCell>
        <mxCell id="Z1lMZc72gcsaE7SiT7uQ-44" style="edgeStyle=orthogonalEdgeStyle;rounded=0;orthogonalLoop=1;jettySize=auto;html=1;exitX=1;exitY=0.75;exitDx=0;exitDy=0;entryX=0.65;entryY=1.005;entryDx=0;entryDy=0;entryPerimeter=0;" edge="1" parent="1" source="Z1lMZc72gcsaE7SiT7uQ-7" target="Z1lMZc72gcsaE7SiT7uQ-39">
          <mxGeometry relative="1" as="geometry" />
        </mxCell>
        <mxCell id="Z1lMZc72gcsaE7SiT7uQ-45" value="Ažurirani&lt;div&gt;pristupi&lt;/div&gt;" style="edgeLabel;html=1;align=center;verticalAlign=middle;resizable=0;points=[];" vertex="1" connectable="0" parent="Z1lMZc72gcsaE7SiT7uQ-44">
          <mxGeometry x="0.3664" relative="1" as="geometry">
            <mxPoint as="offset" />
          </mxGeometry>
        </mxCell>
      </root>
    </mxGraphModel>
  </diagram>
</mxfile>
